<?xml version="1.0" encoding="UTF-8" standalone="no"?>
<!-- Created with Inkscape (http://www.inkscape.org/) -->

<svg
   width="210mm"
   height="297mm"
   viewBox="0 0 210 297"
   version="1.1"
   id="svg1"
   inkscape:version="1.3.1 (9b9bdc1480, 2023-11-25, custom)"
   xmlns:inkscape="http://www.inkscape.org/namespaces/inkscape"
   xmlns:sodipodi="http://sodipodi.sourceforge.net/DTD/sodipodi-0.dtd"
   xmlns="http://www.w3.org/2000/svg"
   xmlns:svg="http://www.w3.org/2000/svg">
  <sodipodi:namedview
     id="namedview1"
     pagecolor="#ffffff"
     bordercolor="#000000"
     borderopacity="0.25"
     inkscape:showpageshadow="2"
     inkscape:pageopacity="0.0"
     inkscape:pagecheckerboard="0"
     inkscape:deskcolor="#d1d1d1"
     inkscape:document-units="mm"
     inkscape:zoom="0.19910564"
     inkscape:cx="399.28553"
     inkscape:cy="562.51546"
     inkscape:window-width="1920"
     inkscape:window-height="1136"
     inkscape:window-x="0"
     inkscape:window-y="0"
     inkscape:window-maximized="1"
     inkscape:current-layer="g10" />
  <defs
     id="defs1" />
  <g
     inkscape:label="Layer 1"
     inkscape:groupmode="layer"
     id="layer1">
    <g
       id="g10"
       transform="matrix(0.12412092,0,0,0.12412092,-71.189739,27.195121)">
      <g
         id="g1"
         transform="translate(70.212222)">
        <path
           d="m 1851.79,718.225 c -0.24,0.003 -0.49,0.003 -0.73,0.003 -26.03,0 -47.4,-20.967 -47.79,-47.078 -0.19,-12.77 4.59,-24.853 13.48,-34.015 8.9,-9.164 20.82,-14.313 33.59,-14.51 0.24,-0.003 0.49,-0.003 0.74,-0.003 26.02,0 47.39,20.968 47.79,47.079 0.39,26.358 -20.73,48.126 -47.08,48.524 z m -174.21,-10.976 c -10.72,10.494 -23.41,22.324 -38,35.053 1.4,-28.301 1.94,-58.049 1.26,-89.226 -0.06,-2.704 -1.16,-5.315 -3.07,-7.237 -19.37,-19.546 -39.22,-37.822 -59.36,-54.899 -2.34,-1.987 -5.9,-0.125 -5.68,2.939 5.39,77.312 2.96,146.281 -2.72,203.934 -0.11,0.08 -0.21,0.161 -0.32,0.241 -3.37,32.093 -7.49,61.264 -11.88,87.045 0.06,-0.036 0.11,-0.071 0.16,-0.107 -2.46,13.713 -4.99,26.173 -7.43,37.239 -3.55,16.045 -13.26,29.522 -27.35,37.949 -9.23,5.527 -19.7,8.445 -30.27,8.445 -5.45,0 -10.93,-0.764 -16.29,-2.275 -13.73,-3.873 -27.15,-7.975 -40.32,-12.238 21.27,-10.452 41.57,-21.205 60.82,-32.122 2.59,-1.464 4.39,-3.941 4.99,-6.851 4.3,-21 8.65,-45.35 12.55,-72.728 0.42,-2.927 -2.77,-5.015 -5.27,-3.436 -45.83,28.91 -99.05,57.663 -159.54,83.172 -0.23,-0.098 -0.47,-0.19 -0.7,-0.288 -27.46,11.404 -56.22,22.214 -86.3,32.2 0.24,0.116 0.48,0.229 0.72,0.342 -13.3,4.352 -26.88,8.528 -40.75,12.484 -5.36,1.526 -10.84,2.305 -16.29,2.323 -10.57,0.03 -21.04,-2.858 -30.29,-8.358 -14.12,-8.386 -23.86,-21.837 -27.46,-37.876 -2.5,-11.169 -5.09,-23.772 -7.62,-37.655 19.02,12.306 39.24,24.633 60.77,36.766 2.5,1.404 5.5,1.746 8.24,0.934 25.52,-7.552 50.12,-15.75 73.82,-24.439 2.86,-1.05 3.02,-5.018 0.29,-6.375 -60.71,-30.156 -112.5,-62.867 -155.35,-93.961 -0.01,-0.035 -0.01,-0.068 -0.02,-0.104 -16.16,-11.737 -31.11,-23.237 -44.84,-34.314 -25.49,-20.697 -46.49,-39.794 -62.95,-55.806 -23.319,-22.705 -24.175,-59.147 -1.94,-82.961 13.68,-14.656 27.66,-28.58 41.86,-41.817 -2.49,33.634 -3.6,65.97 -3.55,96.823 0.01,2.873 1.2,5.586 3.3,7.537 16.08,14.87 35.34,31.614 57.82,49.411 2.33,1.847 5.74,0.104 5.6,-2.868 -2.89,-61.871 -1.39,-133.035 8.34,-210.909 0.11,-0.086 0.22,-0.176 0.33,-0.259 3.99,-29.294 8.97,-59.352 15.17,-90.145 -0.32,0.209 -0.64,0.423 -0.95,0.631 2.16,-10.845 4.43,-21.759 6.94,-32.801 3.65,-16.053 13.43,-29.504 27.55,-37.881 9.12,-5.422 19.47,-8.302 29.91,-8.332 5.55,-0.014 11.11,0.759 16.54,2.297 10.59,3.001 22.19,6.493 34.62,10.509 -18.43,9.129 -37.29,19.064 -56.42,29.954 -2.51,1.425 -4.31,3.849 -4.96,6.654 -5.84,25.373 -10.79,50.259 -15.01,74.665 -0.52,2.98 2.78,5.101 5.32,3.465 54.73,-35.231 108.65,-62.258 157.12,-82.812 0.02,0.009 0.04,0.018 0.07,0.027 20.56,-8.671 40.17,-16.259 58.58,-22.916 23.18,-8.273 44.2,-14.879 62.29,-20.064 5.43,-1.553 10.98,-2.344 16.53,-2.344 10.44,0 20.79,2.853 29.94,8.246 14.14,8.338 23.96,21.762 27.65,37.804 2.58,11.172 4.95,22.244 7.17,33.217 -19.12,-12.514 -38.16,-24.1 -56.96,-34.791 -2.44,-1.383 -5.3,-1.719 -7.99,-0.925 -21.29,6.279 -46.13,14.37 -73.45,24.531 -2.85,1.056 -3.06,4.983 -0.35,6.336 49.32,24.615 101.79,55.652 153.49,94.5 0.02,0.163 0.05,0.33 0.07,0.493 24.15,18.404 48.13,38.337 71.62,59.938 -0.01,-0.181 -0.03,-0.369 -0.05,-0.55 14.22,13.195 28.25,27 41.96,41.599 22.3,23.749 21.55,60.194 -1.71,82.967 z m -80.39,342.871 c 26.35,0.4 47.47,22.16 47.07,48.52 -0.4,26.35 -22.15,47.28 -48.52,47.08 -26.35,-0.4 -47.47,-22.17 -47.08,-48.53 0.2,-12.77 5.35,-24.69 14.51,-33.59 8.99,-8.71 20.78,-13.49 33.27,-13.49 0.25,0 0.5,0 0.75,0.01 z m -494.35,95.6 c -26.37,0.2 -48.12,-20.73 -48.52,-47.08 -0.4,-26.36 20.72,-48.12 47.07,-48.52 0.25,-0.01 0.5,-0.01 0.75,-0.01 12.5,0 24.28,4.78 33.26,13.49 9.17,8.9 14.32,20.82 14.52,33.59 0.4,26.36 -20.72,48.13 -47.08,48.53 z m 0,-874.767 v 0 c -26.33,0.411 -48.12,-20.721 -48.52,-47.079 -0.4,-26.354 20.72,-48.122 47.08,-48.521 0.24,-0.006 0.49,-0.006 0.73,-0.006 26.02,0 47.39,20.971 47.79,47.082 0.19,12.77 -4.6,24.852 -13.49,34.014 -8.89,9.165 -20.82,14.314 -33.59,14.51 z m 493.61,-95.606 c 0.24,0 0.49,0 0.73,0.006 26.36,0.399 47.48,22.167 47.08,48.521 -0.4,26.358 -22.19,47.49 -48.52,47.079 v 0 c -12.77,-0.196 -24.69,-5.345 -33.59,-14.51 -8.89,-9.162 -13.68,-21.244 -13.49,-34.014 0.4,-26.111 21.77,-47.082 47.79,-47.082 z M 847.518,718.228 c -0.238,0 -0.485,0 -0.723,-0.003 -26.358,-0.398 -47.477,-22.166 -47.081,-48.524 0.398,-26.111 21.762,-47.079 47.792,-47.079 0.241,0 0.488,0 0.735,0.003 12.764,0.197 24.692,5.346 33.586,14.51 8.888,9.162 13.677,21.245 13.486,34.015 -0.395,26.111 -21.765,47.078 -47.795,47.078 z M 1926.37,592.802 c -20.33,-19.724 -46.99,-30.525 -75.26,-30.525 -0.56,0 -1.12,0.003 -1.68,0.012 -28.88,0.434 -55.87,12.092 -75.99,32.825 -8.38,8.641 -15.12,18.436 -20.14,29.002 -5.51,-16.081 -14.35,-31.242 -26.63,-44.322 -32.19,-34.287 -65.9,-64.842 -100.1,-92.057 -4.98,-33.137 -11.38,-67.291 -19.46,-102.382 -4.86,-21.122 -14.81,-40.079 -28.9,-55.595 5.44,0.92 10.99,1.443 16.61,1.529 0.57,0.009 1.13,0.012 1.69,0.012 28.26,0 54.93,-10.8 75.26,-30.525 20.74,-20.114 32.4,-47.099 32.83,-75.988 0.9,-59.626 -46.88,-108.87 -106.51,-109.771 -28.83,-0.509 -56.21,10.402 -76.94,30.516 -20.73,20.12 -32.39,47.105 -32.82,75.986 -0.4,25.929 8.32,50.588 24.66,70.363 -8.76,-1.963 -17.7,-3.022 -26.68,-3.022 -11.58,0 -23.21,1.651 -34.55,4.902 -28.43,8.144 -63.69,19.626 -103.15,35.273 -39.35,-15.453 -74.48,-26.772 -102.84,-34.809 -11.35,-3.215 -22.98,-4.834 -34.57,-4.801 -8.76,0.027 -17.47,1.047 -26.01,2.942 16.59,-19.858 25.46,-44.705 25.06,-70.848 -0.43,-28.881 -12.09,-55.866 -32.82,-75.986 -20.73,-20.114 -48.11,-31.025 -76.95,-30.516 -59.62,0.901 -107.398,50.145 -106.5,109.771 0.435,28.889 12.09,55.874 32.83,75.988 20.33,19.725 47,30.525 75.26,30.525 0.56,0 1.12,-0.003 1.68,-0.012 5.56,-0.083 11.04,-0.592 16.42,-1.49 -14.43,15.703 -24.6,34.966 -29.49,56.467 -7.95,34.984 -14.23,69.031 -19.11,102.072 -34.14,27.325 -67.78,57.972 -99.887,92.37 -12.065,12.921 -20.79,27.857 -26.269,43.69 -5.03,-10.673 -11.821,-20.566 -20.277,-29.284 -20.12,-20.733 -47.106,-32.391 -75.986,-32.825 -0.562,-0.009 -1.124,-0.012 -1.681,-0.012 -28.264,0 -54.934,10.801 -75.265,30.525 -20.733,20.114 -32.394,47.1 -32.828,75.989 -0.898,59.625 46.877,108.869 106.502,109.771 h 0.003 c 0.559,0.009 1.115,0.015 1.675,0.015 28.264,0 54.937,-10.81 75.268,-30.532 10.73,-10.411 19.002,-22.672 24.573,-36.072 6.223,15.646 15.682,30.233 28.413,42.62 22.524,21.919 53.069,49.279 91.469,78.698 4.95,38.827 11.33,73.642 18.1,103.884 4.46,19.921 13.48,37.92 26.22,52.968 -3.67,-0.306 -7.38,-0.434 -11.12,-0.363 -28.88,0.435 -55.86,12.09 -75.98,32.82 -20.12,20.74 -30.957,48.06 -30.52,76.95 0.893,59.07 49.24,106.51 108.12,106.51 0.55,0 1.1,0 1.65,-0.01 v 0 c 28.89,-0.43 55.88,-12.09 75.99,-32.83 20.11,-20.73 30.95,-48.06 30.51,-76.94 -0.35,-23.28 -8,-45.33 -21.81,-63.54 6.13,0.9 12.33,1.39 18.58,1.38 11.41,-0.04 22.73,-1.63 33.63,-4.74 38.56,-10.99 75,-23.53 109.39,-37.11 34.27,13.41 70.55,25.8 108.95,36.63 10.91,3.08 22.23,4.64 33.64,4.64 6.01,0 11.99,-0.47 17.89,-1.32 -14.05,18.31 -21.84,40.56 -22.19,64.06 -0.44,28.88 10.4,56.21 30.51,76.94 20.12,20.74 47.1,32.4 75.98,32.83 h 0.01 c 0.55,0.01 1.1,0.01 1.65,0.01 58.88,0 107.23,-47.44 108.12,-106.51 0.44,-28.89 -10.4,-56.21 -30.52,-76.95 -20.12,-20.73 -47.1,-32.385 -75.98,-32.82 -3.66,-0.068 -7.29,0.045 -10.88,0.337 13.07,-15.248 22.29,-33.572 26.77,-53.87 6.67,-30.165 12.92,-64.876 17.76,-103.557 38.34,-29.543 68.81,-57.005 91.28,-78.996 12.52,-12.246 21.85,-26.616 28.03,-42.025 5.57,13.52 13.89,25.885 24.7,36.376 20.33,19.722 47,30.532 75.26,30.532 0.56,0 1.12,-0.006 1.68,-0.015 v 0 c 59.63,-0.902 107.4,-50.146 106.5,-109.771 -0.43,-28.889 -12.09,-55.875 -32.83,-75.989 z"
           fill="#9c19bc"
           id="path1" />
        <path
           d="m 1148.04,922.225 c -2.44,-11.051 -4.96,-23.52 -7.43,-37.215 -27.19,-17.616 -51.77,-35.166 -73.77,-52.043 2.47,19.718 5.32,38.384 8.4,55.948 24.5,17.467 51.56,35.309 81.1,52.939 -3.86,-5.902 -6.72,-12.49 -8.3,-19.629 z"
           fill="#4e2059"
           id="path2" />
        <path
           d="m 1543.78,399.935 c 2.57,11.158 4.9,22.188 7.11,33.149 25.25,16.607 50.62,34.877 75.71,54.943 -2.85,-19.007 -6.16,-38.336 -10,-58.001 -29.38,-21.503 -58.87,-40.734 -87.91,-57.921 7.38,7.639 12.63,17.131 15.09,27.83 z"
           fill="#4e2059"
           id="path3" />
        <path
           d="m 1492.92,968.628 c -5.45,0 -10.93,-0.765 -16.29,-2.276 -13.88,-3.914 -27.46,-8.052 -40.77,-12.362 -27.23,13.299 -56.06,26.108 -86.57,38.06 18.02,7.061 36.68,13.8 55.84,20.21 31.93,-13.895 61.91,-28.605 90.01,-43.71 -0.74,0.03 -1.48,0.078 -2.22,0.078 z"
           fill="#4e2059"
           id="path4" />
        <path
           d="m 1019.19,625.057 c 13.73,-14.706 27.77,-28.651 42.02,-41.941 2.34,-30.635 5.85,-62.356 10.77,-95.091 -15.32,12.249 -30.53,25.194 -45.55,38.824 -3.98,34.172 -6.5,67.172 -7.83,98.901 0.21,-0.223 0.38,-0.467 0.59,-0.693 z"
           fill="#4e2059"
           id="path5" />
        <path
           d="m 1213.64,353.868 c 19.6,4.563 31.82,8.409 50.45,14.127 27.72,-13.255 55.53,-26.644 86.36,-38.712 -18.26,-7.165 -28.77,-11.91 -48.08,-18.133 -31.6,13.6 -61.46,27.878 -89.62,42.558 0.3,0.062 0.59,0.092 0.89,0.16 z"
           fill="#4e2059"
           id="path6" />
        <path
           d="m 1677.44,708.018 c -10.7,10.414 -23.34,22.146 -37.87,34.761 -1.59,32.042 -4.33,62.184 -7.84,90.189 16.09,-12.341 30.78,-24.308 44.09,-35.668 2.68,-29.207 4.51,-60.241 5.11,-93.024 -1.11,1.276 -2.25,2.537 -3.49,3.742 z"
           fill="#4e2059"
           id="path7" />
      </g>
      <g
         id="g2">
        <path
           d="m 1263.35,1833.42 h -81.54 c -3.84,0 -6.95,-3.11 -6.95,-6.95 v -296.3 c 0,-3.75 -5.12,-4.83 -6.64,-1.41 l -132.59,298.47 c -1.67,3.76 -5.4,6.19 -9.52,6.19 h -75.964 c -4.203,0 -7.992,-2.53 -9.611,-6.41 L 816.522,1529.8 c -1.46,-3.5 -6.675,-2.45 -6.675,1.34 v 295.33 c 0,3.84 -3.108,6.95 -6.942,6.95 h -80.962 c -3.835,0 -6.943,-3.11 -6.943,-6.95 v -374.13 c 0,-3.83 3.108,-6.94 6.943,-6.94 h 153.961 c 4.206,0 7.998,2.53 9.614,6.41 l 104.015,249.95 c 1.172,2.82 5.149,2.86 6.38,0.07 l 110.117,-250.21 c 1.66,-3.78 5.4,-6.22 9.53,-6.22 h 147.79 c 3.83,0 6.94,3.11 6.94,6.94 v 374.13 c 0,3.84 -3.11,6.95 -6.94,6.95 z"
           fill="#4e2059"
           id="path8" />
        <path
           d="m 1672.9,1833.42 h -319.76 c -3.84,0 -6.95,-3.11 -6.95,-6.95 v -374.13 c 0,-3.83 3.11,-6.94 6.95,-6.94 h 79.81 c 3.84,0 6.94,3.11 6.94,6.94 v 289.06 c 0,1.92 1.56,3.47 3.47,3.47 h 202.58 c 4.5,0 8.49,2.9 9.89,7.18 l 23.67,72.26 c 1.47,4.49 -1.88,9.11 -6.6,9.11 z"
           fill="#4e2059"
           id="path9" />
        <path
           d="m 2033.79,1559.47 c -4.13,0.03 -7.85,-2.32 -9.76,-5.97 -15.25,-29.16 -49.9,-39.01 -99.02,-40.45 -75.21,-2.2 -112.96,11.18 -113.84,41.27 -1.11,37.88 37.29,40.12 91.33,41.7 35.66,1.05 73.54,2.16 109.09,6.55 45.57,5.23 69.23,15.97 88.19,34.92 14.06,14.91 25.15,35.87 24.16,69.85 -2.47,84.12 -64.22,136.4 -212.96,132.03 -73.54,-2.15 -110.69,-9.38 -137.05,-22.97 -44.41,-23.59 -66.54,-49.56 -71.48,-100.16 -0.41,-4.18 2.93,-7.79 7.13,-7.67 l 83.93,2.46 c 4.36,0.13 8.21,2.91 9.65,7.03 10.67,30.49 64.73,44.22 116.72,45.74 60.72,1.78 106.87,-12.48 107.93,-48.68 1.53,-52.37 -124.05,-28.73 -213.27,-47.52 -52.09,-11 -102.15,-34.22 -99.8,-114.44 2.14,-72.98 58.67,-118.15 211.87,-113.66 123.9,3.63 174.48,40.26 189.51,111 0.91,4.3 -2.37,8.37 -6.76,8.41 z"
           fill="#4e2059"
           id="path10" />
      </g>
    </g>
  </g>
</svg>
