<svg width="549" height="195" viewBox="0 0 549 195" fill="none" xmlns="http://www.w3.org/2000/svg">
<path d="M198.551 107.668C198.508 107.668 198.465 107.668 198.422 107.668C193.776 107.668 189.962 103.926 189.892 99.2655C189.858 96.9862 190.712 94.8296 192.299 93.1944C193.886 91.5586 196.015 90.6396 198.293 90.6046C198.337 90.604 198.381 90.604 198.424 90.604C203.07 90.604 206.884 94.3465 206.955 99.0069C207.025 103.711 203.255 107.597 198.551 107.668ZM167.458 105.709C165.544 107.582 163.28 109.693 160.676 111.965C160.926 106.914 161.021 101.604 160.9 96.0396C160.89 95.557 160.693 95.0908 160.353 94.7479C156.895 91.2592 153.352 87.9972 149.758 84.9492C149.34 84.5946 148.705 84.9269 148.743 85.4738C149.707 99.2729 149.271 111.583 148.259 121.873C148.239 121.887 148.22 121.902 148.201 121.916C147.601 127.644 146.864 132.851 146.081 137.452C146.091 137.446 146.1 137.44 146.11 137.433C145.67 139.881 145.219 142.105 144.783 144.08C144.149 146.944 142.416 149.349 139.902 150.853C138.254 151.84 136.386 152.361 134.499 152.361C133.526 152.361 132.547 152.224 131.591 151.954C129.14 151.263 126.745 150.531 124.395 149.77C128.191 147.905 131.814 145.985 135.251 144.037C135.712 143.776 136.035 143.333 136.141 142.814C136.908 139.066 137.685 134.72 138.382 129.833C138.456 129.311 137.887 128.938 137.44 129.22C129.26 134.38 119.762 139.512 108.965 144.065C108.924 144.047 108.881 144.031 108.839 144.014C103.938 146.049 98.8053 147.978 93.4361 149.761C93.4786 149.781 93.5227 149.802 93.5652 149.822C91.1904 150.598 88.7678 151.344 86.291 152.05C85.3354 152.322 84.3574 152.461 83.3848 152.465C81.4974 152.47 79.628 151.954 77.9774 150.973C75.4581 149.476 73.7188 147.075 73.077 144.213C72.6305 142.219 72.1686 139.969 71.7173 137.492C75.112 139.688 78.7201 141.888 82.564 144.054C83.0089 144.304 83.5441 144.365 84.0341 144.221C88.5894 142.873 92.979 141.409 97.2094 139.859C97.7201 139.671 97.7483 138.963 97.2609 138.721C86.4259 133.338 77.1815 127.5 69.5331 121.95C69.532 121.944 69.5315 121.938 69.531 121.931C66.6454 119.836 63.9781 117.784 61.5268 115.807C56.9774 112.113 53.2285 108.704 50.2915 105.846C46.1291 101.794 45.9762 95.2894 49.9443 91.0389C52.386 88.423 54.8823 85.9378 57.4159 83.5752C56.9715 89.5783 56.774 95.3499 56.783 100.857C56.7841 101.369 56.9959 101.854 57.3718 102.202C60.2414 104.856 63.6786 107.845 67.6908 111.021C68.107 111.351 68.7165 111.04 68.6916 110.509C68.176 99.4661 68.4426 86.7644 70.1792 72.8649C70.1988 72.8495 70.219 72.8336 70.2392 72.8188C70.9512 67.5903 71.8399 62.2253 72.9458 56.7292C72.8896 56.7664 72.8327 56.8046 72.7765 56.8418C73.1624 54.906 73.567 52.9581 74.0151 50.9873C74.6665 48.1219 76.4127 45.7211 78.932 44.2261C80.5613 43.2582 82.4079 42.7443 84.2719 42.739C85.261 42.7363 86.2533 42.8743 87.2233 43.1488C89.1129 43.6845 91.1835 44.3078 93.4032 45.0246C90.1131 46.654 86.7471 48.4272 83.3317 50.3709C82.8852 50.6252 82.5629 51.0579 82.4472 51.5586C81.4044 56.0873 80.5221 60.529 79.7676 64.8852C79.6752 65.4172 80.264 65.7957 80.7174 65.5037C90.4853 59.2155 100.111 54.3916 108.762 50.7229C108.765 50.7245 108.769 50.7261 108.773 50.7277C112.444 49.1801 115.943 47.8257 119.23 46.6375C123.367 45.161 127.118 43.9818 130.347 43.0564C131.316 42.7793 132.308 42.6381 133.297 42.6381C135.161 42.6381 137.009 43.1472 138.641 44.1098C141.165 45.598 142.918 47.994 143.577 50.8572C144.037 52.8514 144.461 54.8275 144.856 56.786C141.444 54.5525 138.045 52.4845 134.69 50.5764C134.255 50.3295 133.744 50.2695 133.264 50.4113C129.464 51.532 125.03 52.9762 120.153 54.7898C119.646 54.9783 119.608 55.6791 120.092 55.9206C128.895 60.314 138.26 65.8536 147.488 72.7874C147.491 72.8166 147.495 72.8464 147.499 72.8756C151.811 76.1604 156.09 79.718 160.283 83.5736C160.281 83.5412 160.277 83.5078 160.275 83.4754C162.812 85.8305 165.316 88.2945 167.763 90.9003C171.744 95.1391 171.609 101.644 167.458 105.709ZM153.109 166.906C157.813 166.977 161.582 170.861 161.512 175.566C161.44 180.269 157.557 184.006 152.851 183.969C148.147 183.898 144.377 180.012 144.449 175.308C144.483 173.029 145.403 170.9 147.038 169.313C148.642 167.757 150.746 166.905 152.976 166.905C153.02 166.905 153.065 166.905 153.109 166.906ZM64.8748 183.969C60.1682 184.006 56.2861 180.269 56.2144 175.566C56.1438 170.861 59.9128 166.977 64.6168 166.906C64.6614 166.905 64.7059 166.905 64.7495 166.905C66.9804 166.905 69.0839 167.757 70.6873 169.313C72.3236 170.9 73.2426 173.029 73.2777 175.308C73.3488 180.012 69.5793 183.898 64.8748 183.969ZM64.8758 27.836H64.8748C60.1756 27.9093 56.2872 24.1376 56.2144 19.4332C56.1438 14.7292 59.9133 10.8439 64.6178 10.7728C64.6603 10.7717 64.7049 10.7717 64.7479 10.7717C69.3929 10.7717 73.207 14.5147 73.2777 19.1751C73.3116 21.4544 72.4568 23.611 70.8705 25.2462C69.283 26.882 67.154 27.801 64.8758 27.836ZM152.978 10.7717C153.021 10.7717 153.065 10.7717 153.108 10.7728C157.812 10.8439 161.582 14.7292 161.512 19.4332C161.439 24.1376 157.55 27.9093 152.851 27.836H152.85C150.572 27.801 148.443 26.882 146.856 25.2462C145.269 23.611 144.415 21.4544 144.449 19.1751C144.519 14.5147 148.333 10.7717 152.978 10.7717ZM19.3038 107.668C19.2613 107.668 19.2173 107.668 19.1748 107.668C14.4703 107.597 10.7008 103.711 10.7714 99.0069C10.8425 94.3465 14.6556 90.604 19.3017 90.604C19.3447 90.604 19.3888 90.604 19.4328 90.6046C21.711 90.6396 23.84 91.5586 25.4274 93.1944C27.0138 94.8296 27.8686 96.9862 27.8346 99.2655C27.764 103.926 23.9499 107.668 19.3038 107.668ZM211.864 85.2816C208.235 81.761 203.476 79.8333 198.431 79.8333C198.332 79.8333 198.231 79.8338 198.131 79.8354C192.976 79.9129 188.159 81.9936 184.569 85.6941C183.072 87.2364 181.869 88.9847 180.974 90.8706C179.99 88.0004 178.411 85.2943 176.219 82.9599C170.474 76.8399 164.458 71.3863 158.353 66.5289C157.465 60.6145 156.322 54.5185 154.881 48.2552C154.013 44.4851 152.236 41.1016 149.721 38.3323C150.693 38.4964 151.683 38.5898 152.687 38.6052C152.788 38.6068 152.888 38.6073 152.988 38.6073C158.033 38.6073 162.792 36.6796 166.421 33.159C170.122 29.569 172.203 24.7525 172.281 19.5962C172.441 8.95387 163.914 0.16449 153.271 0.00363159C148.125 -0.0871582 143.238 1.86026 139.538 5.45033C135.837 9.04147 133.757 13.858 133.679 19.0127C133.609 23.6407 135.165 28.042 138.081 31.5716C136.518 31.2212 134.923 31.0322 133.319 31.0322C131.251 31.0322 129.176 31.3268 127.152 31.9071C122.078 33.3608 115.785 35.4101 108.742 38.2028C101.718 35.4446 95.4473 33.4245 90.3855 31.99C88.3606 31.416 86.2841 31.1272 84.2162 31.133C82.6532 31.1378 81.0976 31.3199 79.5733 31.6581C82.5348 28.1137 84.1174 23.6789 84.0468 19.0127C83.9688 13.858 81.8886 9.04147 78.1881 5.45033C74.4882 1.86026 69.601 -0.0871582 64.4548 0.00363159C53.812 0.16449 45.2849 8.95387 45.4452 19.5962C45.5228 24.7525 47.604 29.569 51.3045 33.159C54.9333 36.6796 59.6935 38.6073 64.7383 38.6073C64.8376 38.6073 64.938 38.6068 65.0383 38.6052C66.0301 38.5904 67.0086 38.4996 67.9685 38.3392C65.3924 41.1419 63.5767 44.5802 62.7044 48.4177C61.2858 54.6618 60.1655 60.7387 59.2943 66.6362C53.1999 71.5132 47.1962 76.9833 41.4655 83.1228C39.3121 85.4292 37.7549 88.0949 36.7769 90.921C35.8791 89.0161 34.667 87.2502 33.1576 85.6941C29.5665 81.9936 24.75 79.9129 19.5953 79.8354C19.4949 79.8338 19.3946 79.8333 19.2953 79.8333C14.2505 79.8333 9.49028 81.761 5.86145 85.2816C2.16093 88.8716 0.0797389 93.6881 0.00222462 98.8444C-0.158113 109.487 8.36898 118.276 19.0113 118.437H19.0118C19.1116 118.439 19.2109 118.44 19.3107 118.44C24.3555 118.44 29.1163 116.51 32.7451 112.99C34.6601 111.132 36.1366 108.944 37.131 106.552C38.2417 109.344 39.93 111.948 42.2024 114.159C46.2225 118.071 51.674 122.955 58.5276 128.205C59.4111 135.135 60.5499 141.349 61.7583 146.747C62.5547 150.303 64.1649 153.515 66.4383 156.201C65.7837 156.147 65.1222 156.124 64.4543 156.137C59.2996 156.214 54.4831 158.294 50.8919 161.995C47.3019 165.696 45.3672 170.572 45.4452 175.728C45.6045 186.272 54.2336 194.74 64.7431 194.74C64.8408 194.74 64.939 194.74 65.0378 194.738H65.0383C70.1941 194.66 75.0106 192.579 78.6007 188.878C82.1907 185.177 84.1254 180.3 84.0468 175.145C83.9842 170.99 82.6187 167.055 80.1536 163.805C81.2473 163.965 82.3548 164.053 83.4703 164.05C85.5063 164.044 87.526 163.76 89.4718 163.205C96.3541 161.242 102.859 159.005 108.997 156.581C115.114 158.975 121.588 161.185 128.442 163.119C130.39 163.668 132.41 163.946 134.447 163.946C135.521 163.946 136.587 163.864 137.641 163.712C135.132 166.98 133.743 170.95 133.679 175.145C133.601 180.3 135.535 185.177 139.126 188.878C142.716 192.579 147.532 194.66 152.687 194.738H152.688C152.787 194.74 152.885 194.74 152.983 194.74C163.492 194.74 172.122 186.272 172.281 175.728C172.358 170.572 170.424 165.696 166.834 161.995C163.243 158.294 158.427 156.214 153.272 156.137C152.619 156.124 151.972 156.144 151.331 156.197C153.663 153.475 155.308 150.205 156.109 146.582C157.298 141.198 158.415 135.002 159.278 128.098C166.121 122.825 171.56 117.924 175.571 113.998C177.805 111.813 179.47 109.248 180.573 106.498C181.567 108.911 183.052 111.118 184.981 112.99C188.61 116.51 193.371 118.44 198.415 118.44C198.515 118.44 198.615 118.439 198.714 118.437H198.715C209.357 118.276 217.884 109.487 217.724 98.8444C217.646 93.6881 215.565 88.8716 211.864 85.2816Z" fill="#9C19BC"/>
<path d="M72.9427 144.078C72.5068 142.106 72.0571 139.881 71.617 137.436C66.7639 134.292 62.3769 131.16 58.4502 128.147C58.8914 131.667 59.3989 134.998 59.9485 138.133C64.3216 141.251 69.1514 144.435 74.424 147.582C73.7348 146.529 73.2246 145.353 72.9427 144.078Z" fill="#4E2059"/>
<path d="M143.577 50.8569C144.035 52.8484 144.451 54.817 144.846 56.7735C149.352 59.7376 153.88 62.9985 158.359 66.5801C157.849 63.1875 157.26 59.7376 156.575 56.2277C151.33 52.3897 146.066 48.9573 140.884 45.8896C142.201 47.253 143.137 48.9472 143.577 50.8569Z" fill="#4E2059"/>
<path d="M134.498 152.36C133.525 152.36 132.547 152.224 131.591 151.954C129.113 151.256 126.69 150.517 124.315 149.748C119.454 152.122 114.309 154.408 108.862 156.541C112.08 157.801 115.409 159.003 118.83 160.147C124.529 157.668 129.879 155.043 134.894 152.347C134.762 152.352 134.63 152.36 134.498 152.36Z" fill="#4E2059"/>
<path d="M49.9444 91.0384C52.3946 88.4135 54.9016 85.9246 57.4442 83.5524C57.862 78.0845 58.4891 72.4228 59.3661 66.58C56.6319 68.7663 53.9178 71.0769 51.2362 73.5096C50.5263 79.6088 50.0766 85.4988 49.8398 91.1621C49.8765 91.1223 49.9073 91.0788 49.9444 91.0384Z" fill="#4E2059"/>
<path d="M84.652 42.6349C88.1492 43.4493 90.3312 44.1358 93.6559 45.1562C98.6035 42.7905 103.568 40.4008 109.07 38.2469C105.81 36.9679 103.934 36.1211 100.489 35.0104C94.8483 37.4377 89.5189 39.9862 84.4922 42.6062C84.5453 42.6174 84.5984 42.6227 84.652 42.6349Z" fill="#4E2059"/>
<path d="M167.434 105.846C165.524 107.704 163.267 109.798 160.675 112.05C160.39 117.769 159.901 123.149 159.275 128.147C162.147 125.945 164.769 123.809 167.144 121.781C167.622 116.568 167.949 111.029 168.056 105.178C167.858 105.406 167.655 105.631 167.434 105.846Z" fill="#4E2059"/>
<path d="M395.386 131.884H380.832C380.148 131.884 379.593 131.329 379.593 130.645V77.7592C379.593 77.0897 378.679 76.8959 378.407 77.5075L354.742 130.78C354.444 131.451 353.778 131.884 353.043 131.884H339.484C338.734 131.884 338.057 131.433 337.769 130.741L315.634 77.6933C315.373 77.0684 314.443 77.2548 314.443 77.9317V130.645C314.443 131.329 313.888 131.884 313.203 131.884H298.753C298.068 131.884 297.514 131.329 297.514 130.645V63.8676C297.514 63.1833 298.068 62.6285 298.753 62.6285H326.233C326.983 62.6285 327.66 63.0803 327.949 63.7731L346.514 108.386C346.723 108.889 347.433 108.896 347.653 108.397L367.306 63.7386C367.603 63.0644 368.27 62.6285 369.007 62.6285H395.386C396.07 62.6285 396.625 63.1833 396.625 63.8676V130.645C396.625 131.329 396.07 131.884 395.386 131.884Z" fill="#4E2059"/>
<path d="M468.485 131.884H411.412C410.728 131.884 410.173 131.329 410.173 130.645V63.8676C410.173 63.1833 410.728 62.6285 411.412 62.6285H425.658C426.343 62.6285 426.897 63.1833 426.897 63.8676V115.461C426.897 115.803 427.174 116.08 427.516 116.08H463.673C464.476 116.08 465.189 116.596 465.439 117.36L469.662 130.259C469.925 131.06 469.328 131.884 468.485 131.884Z" fill="#4E2059"/>
<path d="M532.899 82.989C532.162 82.9943 531.498 82.5743 531.157 81.9218C528.435 76.7172 522.25 74.9604 513.483 74.7029C500.06 74.3095 493.322 76.6992 493.165 82.0683C492.966 88.8301 499.821 89.2294 509.466 89.5124C515.83 89.6993 522.592 89.8973 528.937 90.6804C537.07 91.6153 541.293 93.5309 544.678 96.9139C547.187 99.5749 549.167 103.316 548.989 109.38C548.549 124.396 537.527 133.726 510.978 132.947C497.854 132.562 491.223 131.273 486.518 128.846C478.591 124.635 474.642 120.001 473.76 110.969C473.687 110.224 474.283 109.578 475.032 109.6L490.012 110.04C490.791 110.063 491.477 110.559 491.734 111.294C493.639 116.737 503.288 119.187 512.569 119.459C523.406 119.776 531.642 117.231 531.831 110.769C532.105 101.422 509.69 105.641 493.766 102.288C484.469 100.324 475.534 96.1802 475.954 81.8623C476.335 68.8368 486.424 60.7731 513.768 61.5748C535.884 62.2236 544.911 68.7619 547.593 81.3872C547.756 82.1544 547.172 82.8817 546.388 82.8876L532.899 82.989Z" fill="#4E2059"/>
</svg>
